<?xml version="1.0" encoding="UTF-8"?>
<svg version="1.1" xmlns="http://www.w3.org/2000/svg" width="500" height="500">
<path d="M0 0 C165 0 330 0 500 0 C500 165 500 330 500 500 C335 500 170 500 0 500 C0 335 0 170 0 0 Z " fill="#FEFBF4" transform="translate(0,0)"/>
<path d="M0 0 C0.78931412 -0.00105743 1.57862823 -0.00211487 2.39186096 -0.00320435 C3.27768105 -0.00524368 3.27768105 -0.00524368 4.18139648 -0.00732422 C9.82769827 13.89343983 15.20012123 27.88333995 20.44256592 41.94100952 C22.50028695 47.45823242 24.56459677 52.97299002 26.62844086 58.48792458 C27.35283501 60.42382353 28.07697248 62.35981836 28.80108643 64.29582214 C34.73676001 80.16235871 40.71660725 96.01224933 46.70116425 111.86040115 C47.9017774 115.03984475 49.10216638 118.21937295 50.30249023 121.39892578 C50.54101967 122.03069481 50.7795491 122.66246384 51.0253067 123.31337738 C54.32546856 132.0555066 57.61168546 140.80276311 60.88696289 149.554245 C62.70793882 154.4198485 64.53244805 159.28412494 66.35766983 164.14813709 C67.59628288 167.44974294 68.8329268 170.75205574 70.06463623 174.0562439 C76.49375549 191.32659121 76.49375549 191.32659121 83.52905273 208.35595703 C83.82823105 209.05786667 84.12740936 209.75977631 84.43565369 210.48295593 C86.96307733 216.13160054 89.85805728 220.7292032 95.43530273 223.76220703 C99.64803706 225.14595188 103.74753889 225.99469297 108.11889648 226.68017578 C109.28775391 226.87450195 109.28775391 226.87450195 110.48022461 227.07275391 C112.37931817 227.38732769 114.28019005 227.6911346 116.18139648 227.99267578 C116.18139648 231.29267578 116.18139648 234.59267578 116.18139648 237.99267578 C82.85139648 237.99267578 49.52139648 237.99267578 15.18139648 237.99267578 C15.18139648 234.69267578 15.18139648 231.39267578 15.18139648 227.99267578 C16.78370117 227.73873047 18.38600586 227.48478516 20.03686523 227.22314453 C22.1476332 226.87604047 24.25830539 226.52835368 26.36889648 226.18017578 C27.42399414 226.01453125 28.4790918 225.84888672 29.56616211 225.67822266 C31.09853516 225.42202148 31.09853516 225.42202148 32.66186523 225.16064453 C33.59925537 225.00877686 34.53664551 224.85690918 35.50244141 224.70043945 C38.57096303 223.88975466 40.68205802 222.95904457 43.18139648 220.99267578 C45.71695636 212.57709437 41.2535578 203.26149702 38.30639648 195.49267578 C37.8089404 194.14145949 37.31311488 192.78964188 36.81884766 191.43725586 C35.5467016 187.96950669 34.25406465 184.50982622 32.95440674 181.05230713 C31.46525962 177.08457958 29.9933676 173.11042385 28.52050781 169.1366272 C27.41440843 166.15347951 26.30255562 163.17277765 25.17993164 160.19580078 C24.58704346 158.61605469 24.58704346 158.61605469 23.98217773 157.00439453 C23.45877808 155.61933716 23.45877808 155.61933716 22.92480469 154.20629883 C22.18139648 151.99267578 22.18139648 151.99267578 22.18139648 149.99267578 C-3.22860352 149.99267578 -28.63860352 149.99267578 -54.81860352 149.99267578 C-55.80860352 153.62267578 -56.79860352 157.25267578 -57.81860352 160.99267578 C-59.03368544 164.52147484 -60.27487532 168.02035131 -61.57641602 171.51611328 C-61.92493622 172.46531647 -62.27345642 173.41451965 -62.63253784 174.39248657 C-63.7319168 177.38582437 -64.83712847 180.37695445 -65.94360352 183.36767578 C-67.05688341 186.3799385 -68.16875022 189.39268416 -69.27609253 192.40713501 C-69.96145083 194.27267884 -70.65020019 196.13698139 -71.34280396 197.99984741 C-71.65337738 198.84487823 -71.96395081 199.68990906 -72.28393555 200.56054688 C-72.5569046 201.29792084 -72.82987366 202.0352948 -73.1111145 202.79501343 C-74.81158644 208.07716351 -75.54222601 213.47246986 -74.81860352 218.99267578 C-72.15763895 223.1437805 -68.41304698 223.9580007 -63.81860352 224.99267578 C-60.86919485 225.44671491 -57.91274442 225.76082129 -54.94360352 226.05517578 C-46.94709189 226.86418741 -46.94709189 226.86418741 -45.81860352 227.99267578 C-45.81860352 231.62267578 -45.81860352 235.25267578 -45.81860352 238.99267578 C-86.90360352 238.49767578 -86.90360352 238.49767578 -128.81860352 237.99267578 C-128.81860352 234.69267578 -128.81860352 231.39267578 -128.81860352 227.99267578 C-127.75641602 227.82251953 -126.69422852 227.65236328 -125.59985352 227.47705078 C-111.30173679 225.24159984 -111.30173679 225.24159984 -100.38867188 216.32250977 C-92.4251277 204.50535815 -87.91756955 190.39374015 -82.88110352 177.18017578 C-82.04229219 174.99562815 -81.20268002 172.81138786 -80.36230469 170.62744141 C-78.65842295 166.19853286 -76.95731448 161.76857512 -75.25805664 157.33789062 C-72.07254823 149.04126558 -68.84312084 140.76195467 -65.60601807 132.48535156 C-64.30471726 129.15816664 -63.00507827 125.8303335 -61.70535278 122.50253296 C-61.05837425 120.8461031 -60.41130031 119.18971051 -59.76412964 117.53335571 C-57.39198044 111.46209283 -55.02269153 105.38971814 -52.65454102 99.31689453 C-51.27177786 95.77130237 -49.88896109 92.22573112 -48.50610352 88.68017578 C-48.1681073 87.81354309 -47.83011108 86.9469104 -47.48187256 86.05401611 C-44.29654241 77.88780652 -41.10987039 69.72220811 -37.89672852 61.56689453 C-37.45425781 60.4424292 -37.01178711 59.31796387 -36.5559082 58.15942383 C-35.69963511 55.99091704 -34.83842475 53.82435233 -33.97192383 51.65991211 C-31.56509972 45.60919937 -29.28412514 39.5373268 -27.12193298 33.39547729 C-25.8422182 29.77429571 -24.53160372 26.16461564 -23.21902466 22.55523682 C-22.58206214 20.77744258 -21.95977315 18.99431579 -21.35299683 17.20599365 C-16.57275189 3.13757953 -16.57275189 3.13757953 -12.4440918 0.44287109 C-8.31338571 -0.48428372 -4.21119992 0.0147297 0 0 Z " fill="#020202" transform="translate(254.818603515625,119.00732421875)"/>
<path d="M0 0 C2.97 0 5.94 0 9 0 C15.41559478 13.40791864 21.28930735 27.04624051 27.1875 40.6875 C28.21545365 43.06084409 29.24353035 45.43413488 30.27172852 47.80737305 C37.22096077 63.85449751 44.1470978 79.91146626 51 96 C52.32 93.36 53.64 90.72 55 88 C59.29 88 63.58 88 68 88 C66.05366746 94.81975786 63.78266943 101.31110374 61.0234375 107.83984375 C60.65272125 108.7286171 60.282005 109.61739044 59.90005493 110.53309631 C58.72970391 113.33654368 57.5526383 116.13710704 56.375 118.9375 C55.1916085 121.76344852 54.00961641 124.58997619 52.82852173 127.41688538 C52.09673852 129.16711235 51.36337948 130.9166815 50.62826538 132.66551208 C50.2976712 133.45385941 49.96707703 134.24220673 49.62646484 135.05444336 C49.3357309 135.74598007 49.04499695 136.43751678 48.74545288 137.15000916 C48.10328996 138.74366526 47.54333351 140.36999948 47 142 C45.02 142 43.04 142 41 142 C36.20502219 132.89883198 32.23305942 123.4488295 28.1875 114 C27.16790416 111.62394495 26.14742484 109.24827892 25.12527466 106.87332153 C24.44503291 105.29024345 23.76752331 103.70598861 23.09274292 102.12057495 C21.38540296 98.12715049 19.62438383 94.17587341 17.74072266 90.26220703 C13.47817571 81.32173434 10.80357219 73.97138945 11 63.875 C10.98839844 62.81152344 10.97679687 61.74804688 10.96484375 60.65234375 C10.94184473 58.09945295 10.95320295 55.55238936 11 53 C8.03 53 5.06 53 2 53 C0.11756526 48.99181652 -1.72571907 44.96678435 -3.5625 40.9375 C-4.09552734 39.80376953 -4.62855469 38.67003906 -5.17773438 37.50195312 C-9.06204032 28.90635998 -9.30784983 24.55357758 -6.15234375 15.72265625 C-5.42151577 13.83303795 -4.68305845 11.94635494 -3.9375 10.0625 C-3.56044922 9.09248047 -3.18339844 8.12246094 -2.79492188 7.12304688 C-1.86987534 4.74602857 -0.93810818 2.37188683 0 0 Z " fill="#030303" transform="translate(209,282)"/>
<path d="M0 0 C2.29933149 2.29933149 2.88447559 3.98733593 3.99609375 7.03100586 C4.57810547 8.61183205 4.57810547 8.61183205 5.171875 10.22459412 C5.58953125 11.3763765 6.0071875 12.52815887 6.4375 13.71484375 C6.87707031 14.91315323 7.31664062 16.11146271 7.76953125 17.34608459 C8.94766219 20.55780757 10.11917762 23.77190455 11.28924561 26.98657227 C12.89644622 31.39812747 14.51339674 35.80612082 16.12792969 40.21499634 C17.04272598 42.71512076 17.95613746 45.21575231 18.86816406 47.71688843 C21.19232712 54.08706032 23.53547853 60.44882613 25.91796875 66.79736328 C26.38806765 68.05325091 26.85812057 69.30915575 27.328125 70.56507874 C28.21590768 72.93336619 29.1076616 75.30016983 30.00390625 77.66526794 C30.39835937 78.71875931 30.7928125 79.77225067 31.19921875 80.85766602 C31.54815186 81.78176773 31.89708496 82.70586945 32.2565918 83.65797424 C33 86 33 86 33 89 C11.55 89 -9.9 89 -32 89 C-31.27906788 84.67440727 -30.58766185 81.47785189 -29.1015625 77.4831543 C-28.71025146 76.42311691 -28.31894043 75.36307953 -27.91577148 74.2709198 C-27.48981689 73.13350845 -27.0638623 71.99609711 -26.625 70.82421875 C-25.9466951 68.9922917 -25.26839112 67.1603643 -24.59013367 65.32841969 C-23.63707001 62.75845545 -22.67905255 60.1903488 -21.72113037 57.62219238 C-20.08209501 53.2248887 -18.45127518 48.82453211 -16.81933594 44.42459106 C-15.90031261 41.94694232 -14.98039492 39.46962512 -14.05957031 36.99264526 C-10.54051909 27.51062642 -7.10226408 18.00108536 -3.72827148 8.46647644 C-3.38223877 7.49503189 -3.03620605 6.52358734 -2.6796875 5.52270508 C-2.37788574 4.66953201 -2.07608398 3.81635895 -1.76513672 2.93733215 C-1 1 -1 1 0 0 Z " fill="#FCF9F2" transform="translate(238,166)"/>
<path d="M0 0 C12.87 0 25.74 0 39 0 C39 1.65 39 3.3 39 5 C37.948125 5.31130859 37.948125 5.31130859 36.875 5.62890625 C24.71693455 9.5769737 19.36665591 16.19389213 13 27 C12.34 27.99 11.68 28.98 11 30 C8.08041159 23.17901469 5.31037848 16.31486302 2.6875 9.375 C2.42114746 8.67632812 2.15479492 7.97765625 1.88037109 7.2578125 C0 2.24019718 0 2.24019718 0 0 Z " fill="#030303" transform="translate(313,226)"/>
<path d="M0 0 C12.87 0 25.74 0 39 0 C32.25 19.125 32.25 19.125 29 26 C26.89863933 23.28240453 25.08884045 20.49931501 23.3125 17.5625 C17.52851554 8.95016129 9.82713603 7.01456289 0 5 C0 3.35 0 1.7 0 0 Z " fill="#020202" transform="translate(147,226)"/>
<path d="M0 0 C0.66 0 1.32 0 2 0 C3.55023649 4.65070947 3.94767412 9.45253938 2.2109375 14.12109375 C1.19272284 16.11477361 0.11490709 18.05893874 -1 20 C-3.03810007 24.07620014 -4.11514555 27.31069728 -4.375 31.8125 C-4.77579651 37.61068952 -7.13295652 42.02763676 -10 47 C-9.278125 46.401875 -8.55625 45.80375 -7.8125 45.1875 C-1.14285714 40 -1.14285714 40 2 40 C0.63855967 45.19822672 -1.46730171 48.09543873 -5 52 C-5.66 51.67 -6.32 51.34 -7 51 C-6.34 50.01 -5.68 49.02 -5 48 C-7.31 49.65 -9.62 51.3 -12 53 C-10.515 53.495 -10.515 53.495 -9 54 C-10.093125 54.495 -11.18625 54.99 -12.3125 55.5 C-15.74064196 57.512472 -17.36283671 59.53187262 -18.578125 63.4296875 C-19.47774802 68.91072404 -19.20979042 74.46774901 -19 80 C-28.0774433 69.33595486 -26.82719198 52.07129879 -26 39 C-25.70613072 36.99382155 -25.38389797 34.99091272 -25 33 C-24.16284393 26.25491391 -25.61551641 21.93410573 -29.00390625 16.06640625 C-29.49697266 15.04353516 -29.49697266 15.04353516 -30 14 C-29.67 13.34 -29.34 12.68 -29 12 C-28.18639005 13.29096781 -27.37414954 14.58279875 -26.5625 15.875 C-26.11003906 16.59429687 -25.65757812 17.31359375 -25.19140625 18.0546875 C-24 20 -24 20 -23 22 C-21.35 17.71 -19.7 13.42 -18 9 C-16.64894003 13.05317992 -17.82465043 14.77681297 -19.3125 18.75 C-24.87428343 34.49977682 -25.78978798 51.72421413 -22 68 C-21.731875 67.15179688 -21.46375 66.30359375 -21.1875 65.4296875 C-18.4710092 57.29808676 -15.14881239 50.44917108 -10.4765625 43.25390625 C-8.67071839 39.27436089 -8.91276452 37.18436041 -10 33 C-10.66 32.01 -11.32 31.02 -12 30 C-11.67 29.01 -11.34 28.02 -11 27 C-10.34 28.32 -9.68 29.64 -9 31 C-9 28.03 -9 25.06 -9 22 C-8.01 23.32 -7.02 24.64 -6 26 C-5.81824219 24.7934375 -5.63648438 23.586875 -5.44921875 22.34375 C-5.19575578 20.72909702 -4.94182447 19.11451751 -4.6875 17.5 C-4.56955078 16.70851562 -4.45160156 15.91703125 -4.33007812 15.1015625 C-3.47257274 9.73665704 -2.05928092 5.02995226 0 0 Z " fill="#47976E" transform="translate(210,134)"/>
<path d="M0 0 C3 1 3 1 4.6875 3.5 C6.30973403 7.82595742 6.27356283 11.44061947 6 16 C5.67 16 5.34 16 5 16 C4.34 12.7 3.68 9.4 3 6 C2.67 10.95 2.34 15.9 2 21 C1.67 21 1.34 21 1 21 C0.67 18.03 0.34 15.06 0 12 C0 17.94 0 23.88 0 30 C0.66 30 1.32 30 2 30 C2.12117188 30.56847656 2.24234375 31.13695313 2.3671875 31.72265625 C3.14262216 35.29562058 3.92511534 38.77094104 5.0625 42.25 C8.64479078 56.5791631 5.46526199 68.61010812 0 82 C-1.37848038 77.86455885 0.120841 74.97238088 1.4375 71 C4.81234393 60.10053802 4.5660167 51.93440621 1.65625 40.84765625 C1 38 1 38 1 34 C0.09894531 33.77054688 -0.80210937 33.54109375 -1.73046875 33.3046875 C-5.49552458 31.80226379 -6.87372532 30.31671676 -9.3125 27.125 C-9.98925781 26.26132813 -10.66601562 25.39765625 -11.36328125 24.5078125 C-12.85065114 22.22883525 -13.57393428 20.65519215 -14 18 C-9.60325886 18.50731629 -7.16191891 21.11914055 -4 24 C-3.67 24.66 -3.34 25.32 -3 26 C-2.95101562 24.70964844 -2.90203125 23.41929688 -2.8515625 22.08984375 C-2.77648197 20.37237653 -2.70093646 18.65492959 -2.625 16.9375 C-2.5940625 16.08994141 -2.563125 15.24238281 -2.53125 14.36914062 C-2.29468217 9.26321829 -1.61955494 4.85208127 0 0 Z " fill="#529D77" transform="translate(194,61)"/>
<path d="M0 0 C3.10009769 1.38238352 5.28263873 2.98578859 7.6875 5.375 C8.28949219 5.96023437 8.89148438 6.54546875 9.51171875 7.1484375 C11.10135013 9.12608914 11.5905426 10.5214179 12 13 C10.35 11.68 8.7 10.36 7 9 C9.64 15.6 12.28 22.2 15 29 C14.67 25.37 14.34 21.74 14 18 C16.90304311 20.90304311 17.93642537 23.61725175 18.125 27.71875 C18.04166667 29.57291667 17.95833333 31.42708333 17.875 33.28125 C18.0127607 36.27754522 18.83911485 38.25489939 20 41 C20.4140625 43.45703125 20.4140625 43.45703125 20.625 45.8125 C20.69976562 46.60269531 20.77453125 47.39289063 20.8515625 48.20703125 C20.90054688 48.79871094 20.94953125 49.39039063 21 50 C19.68 49.34 18.36 48.68 17 48 C17.33 47.01 17.66 46.02 18 45 C16.8629737 40.14240835 14.71418449 36.94428268 11.5625 33.125 C10.38880859 31.67480469 10.38880859 31.67480469 9.19140625 30.1953125 C8.46824219 29.47085938 7.74507812 28.74640625 7 28 C6.01 28 5.02 28 4 28 C3.34 26.02 2.68 24.04 2 22 C6.75 23.875 6.75 23.875 9 25 C8.40251953 23.42412109 8.40251953 23.42412109 7.79296875 21.81640625 C5.06029345 14.58437331 2.36643234 7.36223394 0 0 Z " fill="#62A682" transform="translate(157,93)"/>
<path d="M0 0 C2 1 2 1 3.0625 4.0625 C4.10227206 8.00872151 4.57323966 11.94577677 5 16 C5.58394531 15.23816406 5.58394531 15.23816406 6.1796875 14.4609375 C10.69488282 8.9053746 15.53725826 5.11912947 22 2 C22.66 2 23.32 2 24 2 C23.55090939 3.48199902 23.09043436 4.96055236 22.625 6.4375 C22.24214844 7.67306641 22.24214844 7.67306641 21.8515625 8.93359375 C21 11 21 11 19 12 C19.33 10.02 19.66 8.04 20 6 C13.92372109 9.03813946 9.10080017 12.79839966 6 19 C6.598125 18.649375 7.19625 18.29875 7.8125 17.9375 C10 17 10 17 13 18 C8.545 19.485 8.545 19.485 4 21 C3.814375 23.0728125 3.814375 23.0728125 3.625 25.1875 C3.23598357 28.7619408 2.58052147 31.73358896 1 35 C0.67 35 0.34 35 0 35 C-3.14332584 23.01607022 -1.82573961 12.07922368 0 0 Z " fill="#5CA27E" transform="translate(207,74)"/>
<path d="M0 0 C10.96392667 -0.57480781 10.96392667 -0.57480781 15 3 C16.13315467 4.71591992 17.2662427 6.43188409 18.3984375 8.1484375 C21.51140019 11.74732608 25.84154907 13.79561728 30 16 C29.34 16.33 28.68 16.66 28 17 C27.01 16.67 26.02 16.34 25 16 C24.7525 16.61875 24.505 17.2375 24.25 17.875 C22.73816059 20.445127 21.74000687 20.91077465 19 22 C16.7109375 22.23046875 16.7109375 22.23046875 14.375 22.1875 C13.59898437 22.18105469 12.82296875 22.17460937 12.0234375 22.16796875 C10 22 10 22 8 21 C9.01755741 18.33869601 9.66684861 17.19483944 12.1640625 15.734375 C12.97617188 15.40953125 13.78828125 15.0846875 14.625 14.75 C15.44226563 14.41484375 16.25953125 14.0796875 17.1015625 13.734375 C18.04128906 13.37085938 18.04128906 13.37085938 19 13 C19 12.67 19 12.34 19 12 C16.03 11.505 16.03 11.505 13 11 C13.99 10.01 14.98 9.02 16 8 C14.58917968 5.37574221 14.58917968 5.37574221 12 3 C9.00695442 2.26848111 6.07446787 2.07226313 3 2 C3.495 2.45375 3.99 2.9075 4.5 3.375 C6 5 6 5 6 7 C7.98 7.66 9.96 8.32 12 9 C10.3125 9.6875 10.3125 9.6875 8 10 C3.86754779 8.18575269 1.96272357 6.02874837 0 2 C0 1.34 0 0.68 0 0 Z " fill="#A7CBB4" transform="translate(138,118)"/>
<path d="M0 0 C0.66 0 1.32 0 2 0 C2.05399736 1.45792884 2.09279177 2.91642712 2.125 4.375 C2.14820313 5.18710938 2.17140625 5.99921875 2.1953125 6.8359375 C2 9 2 9 0 11 C0 9.35 0 7.7 0 6 C-1.65 9.63 -3.3 13.26 -5 17 C-4.34 16.67 -3.68 16.34 -3 16 C-4.15173355 18.46800047 -5.04783565 20.04783565 -7 22 C-7.60220188 24.67389162 -8.11649772 27.30038831 -8.5625 30 C-9.88793103 37.77586207 -9.88793103 37.77586207 -11 40 C-10.34 40.33 -9.68 40.66 -9 41 C-10.65 41.99 -12.3 42.98 -14 44 C-13.7834375 43.24976563 -13.566875 42.49953125 -13.34375 41.7265625 C-10.76656088 32.25300621 -9.18105795 24.86685337 -14 16 C-14.52729813 13.32445022 -14.76520193 10.72365766 -15 8 C-14.34 8 -13.68 8 -13 8 C-10.95830515 10.90548882 -10 12.40142046 -10 16 C-9.34 16 -8.68 16 -8 16 C-7.896875 15.28328125 -7.79375 14.5665625 -7.6875 13.828125 C-6.92197309 10.67902565 -5.70915043 8.49450117 -4 5.75 C-3.46375 4.87859375 -2.9275 4.0071875 -2.375 3.109375 C-1 1 -1 1 0 0 Z " fill="#B1D1BC" transform="translate(389,229)"/>
<path d="M0 0 C0.3690205 9.41002278 0.3690205 9.41002278 -2 14 C-2.33 13.34 -2.66 12.68 -3 12 C-3.825 12.433125 -4.65 12.86625 -5.5 13.3125 C-8.05439131 14.54408152 -10.40584107 15.52002007 -13.0625 16.4375 C-16.61111053 17.7179967 -19.18440066 19.4483631 -22 22 C-18.79565668 12.38697003 -11.86735092 6.9036804 -4 1 C-2 0 -2 0 0 0 Z " fill="#BAD6C2" transform="translate(229,144)"/>
<path d="M0 0 C4.22574828 3.92982753 5.91274575 8.16766077 6.1875 13.9375 C6.125625 14.948125 6.06375 15.95875 6 17 C5.34 15.68 4.68 14.36 4 13 C1.64398471 14.92142442 1.64398471 14.92142442 1.75 18.3125 C1.77783504 21.87481602 1.77783504 21.87481602 3.07421875 24.3984375 C4.19097069 27.53665181 3.84630875 29.10769618 3.0625 32.3125 C2.00407965 37.38070512 2.09849925 40.91881396 3 46 C3.1983869 47.66540586 3.38584291 49.3321492 3.5625 51 C3.68818359 52.1446875 3.68818359 52.1446875 3.81640625 53.3125 C3.87699219 53.869375 3.93757813 54.42625 4 55 C3.01 55.66 2.02 56.32 1 57 C0.93941406 56.05898438 0.87882812 55.11796875 0.81640625 54.1484375 C0.69072266 52.28058594 0.69072266 52.28058594 0.5625 50.375 C0.48128906 49.14523437 0.40007812 47.91546875 0.31640625 46.6484375 C0.05500108 43.04547911 0.05500108 43.04547911 -0.56640625 39.69921875 C-1.03393663 36.78873682 -0.5863536 34.85847378 0 32 C-0.33652369 29.48400985 -0.33652369 29.48400985 -1 27 C-1.37668344 25.34259285 -1.72057545 23.67654729 -2 22 C-1.67 21.67 -1.34 21.34 -1 21 C-0.84313751 19.44051458 -0.74923361 17.87457332 -0.68359375 16.30859375 C-0.62075195 14.89223633 -0.62075195 14.89223633 -0.55664062 13.44726562 C-0.51732422 12.45404297 -0.47800781 11.46082031 -0.4375 10.4375 C-0.37272461 8.94186523 -0.37272461 8.94186523 -0.30664062 7.41601562 C-0.20019702 4.9441585 -0.09818072 2.4721969 0 0 Z " fill="#61A581" transform="translate(354,240)"/>
<path d="M0 0 C1.35105997 4.05317992 0.17534957 5.77681297 -1.3125 9.75 C-6.91785537 25.62316319 -7.5950334 42.59766013 -4 59 C-3.01 56.03 -2.02 53.06 -1 50 C-0.34 50.33 0.32 50.66 1 51 C0.67257813 51.83789062 0.34515625 52.67578125 0.0078125 53.5390625 C-1.09647136 57.3312931 -1.19932952 60.43553543 -1.125 64.375 C-1.09792969 66.24285156 -1.09792969 66.24285156 -1.0703125 68.1484375 C-1.04710937 69.08945313 -1.02390625 70.03046875 -1 71 C-10.0774433 60.33595486 -8.82719198 43.07129879 -8 30 C-7.70613072 27.99382155 -7.38389797 25.99091272 -7 24 C-6.16284393 17.25491391 -7.61551641 12.93410573 -11.00390625 7.06640625 C-11.33261719 6.38449219 -11.66132813 5.70257813 -12 5 C-11.67 4.34 -11.34 3.68 -11 3 C-10.18639005 4.29096781 -9.37414954 5.58279875 -8.5625 6.875 C-7.88380859 7.95394531 -7.88380859 7.95394531 -7.19140625 9.0546875 C-6 11 -6 11 -5 13 C-3.35 8.71 -1.7 4.42 0 0 Z " fill="#5CA27D" transform="translate(192,143)"/>
<path d="M0 0 C0.33 0 0.66 0 1 0 C1.08159574 4.16138263 0.98248524 7.9472484 0 12 C0.78375 11.525625 1.5675 11.05125 2.375 10.5625 C6.92189258 8.60263251 11.09893144 8.28089128 16 8 C14.25 11.875 14.25 11.875 12 13 C11.67 12.34 11.34 11.68 11 11 C10.01 10.67 9.02 10.34 8 10 C7.67 10.66 7.34 11.32 7 12 C5.22265625 12.4921875 5.22265625 12.4921875 3.0625 12.875 C-0.11017098 13.47522858 -0.11017098 13.47522858 -2.1875 15.75 C-2.5896875 16.86375 -2.5896875 16.86375 -3 18 C-4.58411926 20.07820147 -6.29081549 22.02094425 -8 24 C-9.44546208 21.10907584 -8.65191328 18.84222483 -7.9453125 15.796875 C-6.05063485 10.1911345 -2.95172682 5.10632955 0 0 Z " fill="#9AC4AB" transform="translate(394,241)"/>
<path d="M0 0 C3.80425588 3.80425588 3.74382029 9.81947705 4 15 C3.37132291 18.82633683 2.35301633 22.37013361 1 26 C0.01 26 -0.98 26 -2 26 C-3.54063629 22.91872742 -3.14327206 19.68978658 -3.125 16.3125 C-3.12886719 15.61705078 -3.13273438 14.92160156 -3.13671875 14.20507812 C-3.12835916 9.7285201 -2.89330903 5.40435275 -2 1 C-1.34 0.67 -0.68 0.34 0 0 Z " fill="#C1D9C7" transform="translate(196,65)"/>
<path d="M0 0 C3.10009769 1.38238352 5.28263873 2.98578859 7.6875 5.375 C8.28949219 5.96023437 8.89148438 6.54546875 9.51171875 7.1484375 C11.10135013 9.12608914 11.5905426 10.5214179 12 13 C10.35 11.68 8.7 10.36 7 9 C7.45632812 10.04800781 7.91265625 11.09601563 8.3828125 12.17578125 C8.96426367 13.55438321 9.54495349 14.93330645 10.125 16.3125 C10.42792969 17.00279297 10.73085937 17.69308594 11.04296875 18.40429688 C11.8828125 20.42578125 11.8828125 20.42578125 13 24 C12.34 24.99 11.68 25.98 11 27 C10.34 27 9.68 27 9 27 C8.68546875 25.94941406 8.3709375 24.89882812 8.046875 23.81640625 C5.76483144 16.29792769 3.32200828 9.13616593 0 2 C0 1.34 0 0.68 0 0 Z " fill="#8BBCA0" transform="translate(157,93)"/>
<path d="M0 0 C0.66 0.33 1.32 0.66 2 1 C3.2728137 5.25345337 3.14935843 9.59924414 3.125 14 C3.12886719 14.69867188 3.13273438 15.39734375 3.13671875 16.1171875 C3.12963657 19.87074298 2.89787023 23.35151145 2 27 C0.68 26.67 -0.64 26.34 -2 26 C-2.33165588 17.137418 -1.3213258 8.7419859 0 0 Z " fill="#7CB495" transform="translate(207,74)"/>
<path d="M0 0 C-1.91780776 3.54794435 -3.52215543 5.91450929 -7 8 C-9.65625 8.2578125 -9.65625 8.2578125 -12.5 8.125 C-15.90737659 7.98458613 -18.72689832 7.99645467 -22 9 C-16.32038645 2.77503714 -8.46558094 -0.9406201 0 0 Z " fill="#B3D2BD" transform="translate(390,296)"/>
<path d="M0 0 C0.66 0.33 1.32 0.66 2 1 C1.57576756 2.46224799 1.13509755 3.91973412 0.6875 5.375 C0.44386719 6.18710938 0.20023438 6.99921875 -0.05078125 7.8359375 C-1 10 -1 10 -4 12 C-6.26171875 12.6328125 -6.26171875 12.6328125 -8.6875 13.125 C-9.49574219 13.29257813 -10.30398437 13.46015625 -11.13671875 13.6328125 C-11.75160156 13.75398438 -12.36648437 13.87515625 -13 14 C-11.64101764 9.77533744 -9.86283346 7.6105921 -6.5 4.75 C-5.30890625 3.72132812 -5.30890625 3.72132812 -4.09375 2.671875 C-2 1 -2 1 0 0 Z " fill="#DCE9DC" transform="translate(226,79)"/>
<path d="M0 0 C4.38402115 1.19564213 7.32415047 2.23398955 10 6 C10.61612479 8.70266503 10.81443973 11.21659599 11 14 C6.44630691 11.98790305 3.1105302 9.93390584 0 6 C-0.3125 2.6875 -0.3125 2.6875 0 0 Z " fill="#ECF1E7" transform="translate(334,252)"/>
<path d="M0 0 C-1.36144033 5.19822672 -3.46730171 8.09543873 -7 12 C-7.66 11.67 -8.32 11.34 -9 11 C-8.34 10.01 -7.68 9.02 -7 8 C-9.31 9.65 -11.62 11.3 -14 13 C-13.01 13.33 -12.02 13.66 -11 14 C-15.75 17 -15.75 17 -18 17 C-16.14683663 10.41097469 -11.00672814 4.92092701 -5.1875 1.5 C-2 0 -2 0 0 0 Z " fill="#8FBEA3" transform="translate(212,174)"/>
<path d="M0 0 C0.66 0 1.32 0 2 0 C2.94238698 2.82716095 3.13465647 4.63176123 3.125 7.5625 C3.12757813 8.34753906 3.13015625 9.13257813 3.1328125 9.94140625 C3 12 3 12 2 14 C1.34 14 0.68 14 0 14 C-0.66 15.32 -1.32 16.64 -2 18 C-4 15 -4 15 -3.828125 12.6953125 C-1.87761945 4.02347024 -1.87761945 4.02347024 0 0 Z " fill="#83B89A" transform="translate(210,134)"/>
<path d="M0 0 C1.5 1.125 1.5 1.125 3 3 C3.1875 6 3.1875 6 3 9 C3 9.99 3 10.98 3 12 C2.83743749 14.43843759 2.35312213 15.65573052 0.59765625 17.3671875 C-0.9031417 18.61726391 -2.44937784 19.81228941 -4 21 C-4.66 20.67 -5.32 20.34 -6 20 C-5.27490234 19.43925781 -5.27490234 19.43925781 -4.53515625 18.8671875 C-2.42297378 16.29817167 -2.56469677 14.41570341 -2.4375 11.125 C-2.26496146 6.95270428 -1.74947548 3.80809521 0 0 Z " fill="#B1D1BC" transform="translate(365,291)"/>
<path d="M0 0 C8.77578475 0.03408072 8.77578475 0.03408072 11.77734375 2.40234375 C13.125 4.0625 13.125 4.0625 15 7 C14.67 7.66 14.34 8.32 14 9 C10.9375 9.625 10.9375 9.625 8 10 C7.67 9.34 7.34 8.68 7 8 C5.35857037 6.9590934 3.69287785 5.95495674 2 5 C2.33 4.34 2.66 3.68 3 3 C2.01 2.01 1.02 1.02 0 0 Z " fill="#F9F9F1" transform="translate(140,119)"/>
<path d="M0 0 C4.21113568 0.48590027 7.29321739 2.87620606 10 6 C11.31643619 8.64266 12.13311569 11.15854589 13 14 C9.42838865 13.74354454 8.23041904 13.25052541 5.76171875 10.56640625 C4.73498047 9.07947266 4.73498047 9.07947266 3.6875 7.5625 C2.99011719 6.57378906 2.29273438 5.58507812 1.57421875 4.56640625 C0 2 0 2 0 0 Z " fill="#96C2A8" transform="translate(180,79)"/>
<path d="M0 0 C8.66711545 -0.45439246 8.66711545 -0.45439246 12.75 0.9375 C16.22240714 4.12053987 18.55819957 7.99746115 21 12 C18.36 11.67 15.72 11.34 13 11 C13.99 10.01 14.98 9.02 16 8 C14.58917968 5.37574221 14.58917968 5.37574221 12 3 C9.00695442 2.26848111 6.07446787 2.07226313 3 2 C3.495 2.45375 3.99 2.9075 4.5 3.375 C6 5 6 5 6 7 C7.98 7.66 9.96 8.32 12 9 C10.3125 9.6875 10.3125 9.6875 8 10 C3.86754779 8.18575269 1.96272357 6.02874837 0 2 C0 1.34 0 0.68 0 0 Z " fill="#82B799" transform="translate(138,118)"/>
<path d="M0 0 C5.91045857 3.83774981 8.04693293 7.51959964 9.578125 14.36328125 C10.04557473 17.28484205 10.23942064 20.04714549 10 23 C7.30814992 21.65407496 7.15246858 20.36989398 6.0546875 17.59765625 C5.70019531 16.70755859 5.34570312 15.81746094 4.98046875 14.90039062 C4.61566406 13.96388672 4.25085938 13.02738281 3.875 12.0625 C3.50246094 11.12986328 3.12992188 10.19722656 2.74609375 9.23632812 C0 2.28056319 0 2.28056319 0 0 Z " fill="#E8EFE4" transform="translate(163,100)"/>
<path d="M0 0 C0.66 0 1.32 0 2 0 C2.05399736 1.45792884 2.09279177 2.91642712 2.125 4.375 C2.14820313 5.18710938 2.17140625 5.99921875 2.1953125 6.8359375 C2 9 2 9 0 11 C0 9.35 0 7.7 0 6 C-1.65 9.3 -3.3 12.6 -5 16 C-5.99 16 -6.98 16 -8 16 C-7.42070126 11.97387377 -6.14350034 9.19196689 -4 5.75 C-3.46375 4.87859375 -2.9275 4.0071875 -2.375 3.109375 C-1 1 -1 1 0 0 Z " fill="#98C3A9" transform="translate(389,229)"/>
<path d="M0 0 C1.35105997 4.05317992 0.17534957 5.77681297 -1.3125 9.75 C-4.07268737 17.43807606 -5.22819388 24.87875647 -6 33 C-6.66 32.67 -7.32 32.34 -8 32 C-7.7525 30.2984375 -7.7525 30.2984375 -7.5 28.5625 C-7.3237198 27.04275098 -7.15751605 25.5218083 -7 24 C-6.92007813 23.27941406 -6.84015625 22.55882812 -6.7578125 21.81640625 C-6.40152593 15.93767779 -8.07899952 12.13148864 -11.00390625 7.06640625 C-11.33261719 6.38449219 -11.66132813 5.70257813 -12 5 C-11.67 4.34 -11.34 3.68 -11 3 C-10.18639005 4.29096781 -9.37414954 5.58279875 -8.5625 6.875 C-7.88380859 7.95394531 -7.88380859 7.95394531 -7.19140625 9.0546875 C-6 11 -6 11 -5 13 C-3.35 8.71 -1.7 4.42 0 0 Z " fill="#68A987" transform="translate(192,143)"/>
<path d="M0 0 C-0.99 1.32 -1.98 2.64 -3 4 C-5.31 3.34 -7.62 2.68 -10 2 C-10 2.66 -10 3.32 -10 4 C-9.01 4.66 -8.02 5.32 -7 6 C-8.15628906 6.19916016 -8.15628906 6.19916016 -9.3359375 6.40234375 C-10.33882813 6.57894531 -11.34171875 6.75554687 -12.375 6.9375 C-13.87160156 7.19853516 -13.87160156 7.19853516 -15.3984375 7.46484375 C-17.96909656 7.87712062 -17.96909656 7.87712062 -20 9 C-16.38296454 -0.76599574 -9.07225953 -0.66060142 0 0 Z " fill="#7FB697" transform="translate(369,312)"/>
<path d="M0 0 C0 0.66 0 1.32 0 2 C-3.69927601 3.233092 -7.15003833 3.4492913 -11 3 C-13.5 1.625 -13.5 1.625 -15 0 C-15 -0.66 -15 -1.32 -15 -2 C-13.25285767 -2.25002209 -11.50200859 -2.47423194 -9.75 -2.6875 C-8.77546875 -2.81511719 -7.8009375 -2.94273437 -6.796875 -3.07421875 C-3.49834337 -2.98668788 -2.30594277 -2.31143311 0 0 Z " fill="#93C0A6" transform="translate(349,269)"/>
<path d="M0 0 C0.62306169 2.92838992 0.86571881 4.1889601 0 7 C-3.03979354 10.37043775 -6.4388408 13.19558713 -10 16 C-10.33 15.34 -10.66 14.68 -11 14 C-9.671875 11.50390625 -9.671875 11.50390625 -7.75 8.5625 C-6.81414062 7.11037109 -6.81414062 7.11037109 -5.859375 5.62890625 C-1.8781575 0 -1.8781575 0 0 0 Z " fill="#87BA9D" transform="translate(380,284)"/>
<path d="M0 0 C3 1 3 1 4.6875 3.5 C6.30973403 7.82595742 6.27356283 11.44061947 6 16 C5.67 16 5.34 16 5 16 C4.34 12.7 3.68 9.4 3 6 C2.67 10.95 2.34 15.9 2 21 C1.67 21 1.34 21 1 21 C0.92652344 20.06027344 0.92652344 20.06027344 0.8515625 19.1015625 C0.77679688 18.28429687 0.70203125 17.46703125 0.625 16.625 C0.55539063 15.81289062 0.48578125 15.00078125 0.4140625 14.1640625 C0.17107412 11.79665809 0.17107412 11.79665809 -2 10 C-1.7578125 7.6171875 -1.7578125 7.6171875 -1.125 4.875 C-0.92132813 3.96492188 -0.71765625 3.05484375 -0.5078125 2.1171875 C-0.34023437 1.41851562 -0.17265625 0.71984375 0 0 Z " fill="#72AE8E" transform="translate(194,61)"/>
<path d="M0 0 C2.36319349 0.9452774 3.73002108 1.58003278 5.125 3.75 C6.15657407 6.40261904 6.19964343 8.41354949 6.125 11.25 C6.10695312 12.14203125 6.08890625 13.0340625 6.0703125 13.953125 C6.03550781 14.96632812 6.03550781 14.96632812 6 16 C4.5 14.625 4.5 14.625 3 13 C3 12.34 3 11.68 3 11 C2.34 11 1.68 11 1 11 C-0.17571451 7.32589215 -0.07366746 3.83070817 0 0 Z " fill="#C2DBC9" transform="translate(196,150)"/>
<path d="M0 0 C2.76248869 5.15664556 3.1129027 9.12905966 3 15 C1.02 15.99 1.02 15.99 -1 17 C-1.82020418 14.11288129 -2.16181621 11.49986689 -2.1875 8.5 C-2.20167969 7.7471875 -2.21585937 6.994375 -2.23046875 6.21875 C-1.97417278 3.75135827 -1.22845153 2.13643744 0 0 Z " fill="#C9DECD" transform="translate(357,249)"/>
<path d="M0 0 C4.21219816 4.21219816 5.90315441 7.96624254 6.1875 13.9375 C6.125625 14.948125 6.06375 15.95875 6 17 C5.34 15.68 4.68 14.36 4 13 C3.34 13.66 2.68 14.32 2 15 C1.34 14.67 0.68 14.34 0 14 C0 9.38 0 4.76 0 0 Z " fill="#93C1A6" transform="translate(354,240)"/>
<path d="M0 0 C3.22308282 3.22308282 2.75540753 7.05059806 3.0390625 11.45703125 C2.96863736 17.84459104 1.55105172 23.67342242 -2 29 C-2.33 25.7 -2.66 22.4 -3 19 C-2.67 19.66 -2.34 20.32 -2 21 C-1.34 21 -0.68 21 0 21 C0 14.07 0 7.14 0 0 Z " fill="#42946B" transform="translate(209,80)"/>
<path d="M0 0 C2.5308997 2.5308997 2.70461323 4.65135301 3.046875 8.13671875 C2.95273708 13.88697668 1.39813301 19.44696322 0 25 C-0.33 25 -0.66 25 -1 25 C-0.67 16.75 -0.34 8.5 0 0 Z " fill="#F3F5EC" transform="translate(196,65)"/>
<path d="M0 0 C-1.75 3.875 -1.75 3.875 -4 5 C-4.33 4.34 -4.66 3.68 -5 3 C-5.99 2.67 -6.98 2.34 -8 2 C-8.33 2.66 -8.66 3.32 -9 4 C-10.77734375 4.4921875 -10.77734375 4.4921875 -12.9375 4.875 C-16.26391308 5.51730972 -16.26391308 5.51730972 -18.375 8.0625 C-18.58125 8.701875 -18.7875 9.34125 -19 10 C-19.99 10.495 -19.99 10.495 -21 11 C-19.25 5.25 -19.25 5.25 -17 3 C-16.01 3 -15.02 3 -14 3 C-12.52939479 2.53733769 -11.071528 2.03319121 -9.625 1.5 C-6.28529778 0.33954882 -3.57544915 -0.34601121 0 0 Z " fill="#559F79" transform="translate(410,249)"/>
<path d="M0 0 C4.24483639 3.35638226 7.73193589 6.67462104 11 11 C11 11.66 11 12.32 11 13 C9.35 12.67 7.7 12.34 6 12 C6 11.34 6 10.68 6 10 C5.34 10 4.68 10 4 10 C4 9.34 4 8.68 4 8 C3.34 8 2.68 8 2 8 C-0.1519437 4.77208445 -0.20086443 3.71599191 0 0 Z " fill="#C6DCCB" transform="translate(162,119)"/>
<path d="M0 0 C0.66 0 1.32 0 2 0 C2.2611994 7.6328268 2.50255082 15.99489836 -1 23 C-0.34 23.33 0.32 23.66 1 24 C-0.65 24.99 -2.3 25.98 -4 27 C-3.7834375 26.26136719 -3.566875 25.52273438 -3.34375 24.76171875 C-1.61750044 18.47209652 -0.70094278 12.89888172 -0.9921875 6.375 C-0.99981278 4.05691356 -0.66514493 2.21032776 0 0 Z " fill="#68A986" transform="translate(379,246)"/>
<path d="M0 0 C2 1 2 1 3 3 C6.465 2.505 6.465 2.505 10 2 C9.67 2.66 9.34 3.32 9 4 C6.92578125 4.67578125 6.92578125 4.67578125 4.3125 5.3125 C-0.59630738 6.67879646 -3.37271016 8.46816515 -7 12 C-5.44298069 7.32894208 -2.91552627 3.91294315 0 0 Z " fill="#71AE8D" transform="translate(214,154)"/>
<path d="M0 0 C0.99 0.33 1.98 0.66 3 1 C4.16796875 3.50390625 4.16796875 3.50390625 5.1875 6.5625 C5.53167969 7.57441406 5.87585938 8.58632812 6.23046875 9.62890625 C6.48441406 10.41136719 6.73835937 11.19382812 7 12 C5.02 12.99 5.02 12.99 3 14 C2.49307308 12.4188708 1.99473557 10.83498617 1.5 9.25 C1.2215625 8.36828125 0.943125 7.4865625 0.65625 6.578125 C0 4 0 4 0 0 Z " fill="#7CB495" transform="translate(163,106)"/>
<path d="M0 0 C1.35015859 4.05047576 0.62084998 6.7920168 0 11 C0.66 10.67 1.32 10.34 2 10 C1 12 0 14 -1 16 C-1.22622081 17.70363822 -1.40888473 19.41328701 -1.5625 21.125 C-1.64628906 22.03507812 -1.73007812 22.94515625 -1.81640625 23.8828125 C-1.87699219 24.58148438 -1.93757813 25.28015625 -2 26 C-4 24 -4 24 -4.08203125 21.09375 C-3.52706547 13.69420629 -2.55783299 6.98175797 0 0 Z " fill="#7BB294" transform="translate(346,312)"/>
<path d="M0 0 C0.3690205 9.41002278 0.3690205 9.41002278 -2 14 C-2.33 13.34 -2.66 12.68 -3 12 C-3.66 11.67 -4.32 11.34 -5 11 C-4.67 9.68 -4.34 8.36 -4 7 C-4.99 7.495 -4.99 7.495 -6 8 C-5.67 7.401875 -5.34 6.80375 -5 6.1875 C-3.79212012 3.94613529 -3.79212012 3.94613529 -4 1 C-2 0 -2 0 0 0 Z " fill="#84B398" transform="translate(229,144)"/>
<path d="M0 0 C1.96367171 1.88185205 2.92956153 3.3707497 3.234375 6.09375 C3.26155818 10.17122768 3.02363381 14.03341898 2 18 C0.5 17 0.5 17 -1 15 C-1.34335442 9.84968375 -0.84619872 5.0771923 0 0 Z " fill="#D2E3D4" transform="translate(207,83)"/>
<path d="M0 0 C0.66 0.33 1.32 0.66 2 1 C2.37890625 2.96875 2.37890625 2.96875 2.5625 5.5 C2.6346875 6.39460938 2.706875 7.28921875 2.78125 8.2109375 C2.8534375 9.13132812 2.925625 10.05171875 3 11 C3.18043224 12.70909427 3.36735972 14.41752253 3.5625 16.125 C3.706875 17.40375 3.85125 18.6825 4 20 C3.01 20.66 2.02 21.32 1 22 C0.93941406 21.05898438 0.87882812 20.11796875 0.81640625 19.1484375 C0.69072266 17.28058594 0.69072266 17.28058594 0.5625 15.375 C0.48128906 14.14523437 0.40007812 12.91546875 0.31640625 11.6484375 C0.05883356 8.03805984 0.05883356 8.03805984 -0.59765625 4.6640625 C-1 2 -1 2 0 0 Z " fill="#80B698" transform="translate(354,275)"/>
<path d="M0 0 C0.66 0 1.32 0 2 0 C2.69761537 2.60183588 3.38337774 5.20583602 4.0625 7.8125 C4.26166016 8.55048828 4.46082031 9.28847656 4.66601562 10.04882812 C6.11328125 15.66015625 6.11328125 15.66015625 5 19 C4.01 18.34 3.02 17.68 2 17 C2.33 16.01 2.66 15.02 3 14 C2.36079057 11.99105606 1.68960962 9.99220557 1 8 C0 1.9 0 1.9 0 0 Z " fill="#42946A" transform="translate(172,124)"/>
<path d="M0 0 C5.23415214 2.06611269 7.17095532 3.04917182 10 8 C10.99 9.485 10.99 9.485 12 11 C9 11 9 11 7.61328125 9.6875 C6.40885417 8.125 5.20442708 6.5625 4 5 C3.01 5.495 3.01 5.495 2 6 C1.34 4.02 0.68 2.04 0 0 Z " fill="#6FAC8B" transform="translate(159,115)"/>
<path d="M0 0 C-1.98 0.99 -1.98 0.99 -4 2 C-3.67 2.66 -3.34 3.32 -3 4 C-0.69 4 1.62 4 4 4 C2 6 2 6 -0.09375 6.23046875 C-0.8878125 6.21628906 -1.681875 6.20210937 -2.5 6.1875 C-3.2940625 6.18105469 -4.088125 6.17460937 -4.90625 6.16796875 C-7 6 -7 6 -9 5 C-8.00233891 2.50584728 -7.31383315 1.21259665 -5.0625 -0.3125 C-3 -1 -3 -1 0 0 Z " fill="#64A784" transform="translate(155,134)"/>
<path d="M0 0 C4.571279 0.54855348 8.67435795 1.41744803 13 3 C12.67 3.66 12.34 4.32 12 5 C8.9375 5.625 8.9375 5.625 6 6 C5.67 5.34 5.34 4.68 5 4 C3.34051852 2.98812105 1.67419438 1.9873454 0 1 C0 0.67 0 0.34 0 0 Z " fill="#B6D3BF" transform="translate(142,123)"/>
<path d="M0 0 C0.33 0 0.66 0 1 0 C1.06058594 1.22976562 1.12117187 2.45953125 1.18359375 3.7265625 C1.26805005 5.35938427 1.35269547 6.99219627 1.4375 8.625 C1.47681641 9.43324219 1.51613281 10.24148437 1.55664062 11.07421875 C1.78796082 15.45150865 2.16920917 19.68547281 3 24 C1.68 23.34 0.36 22.68 -1 22 C-1 19.19655645 -0.94082989 16.46452301 -0.78125 13.671875 C-0.73613281 12.87265625 -0.69101563 12.0734375 -0.64453125 11.25 C-0.59683594 10.425 -0.54914063 9.6 -0.5 8.75 C-0.45230469 7.90953125 -0.40460938 7.0690625 -0.35546875 6.203125 C-0.23798207 4.13535944 -0.11912513 2.06767182 0 0 Z " fill="#398F64" transform="translate(192,71)"/>
<path d="M0 0 C1.9451 2.91765 2.45276317 4.62537285 3 8 C1.02 8.33 -0.96 8.66 -3 9 C-2.44271087 5.65626525 -1.64826111 2.96687001 0 0 Z " fill="#282726" transform="translate(283,324)"/>
<path d="M0 0 C1.50433594 0.29197266 1.50433594 0.29197266 3.0390625 0.58984375 C4.19535156 0.82380859 4.19535156 0.82380859 5.375 1.0625 C3.375 3.0625 3.375 3.0625 0.9140625 3.22265625 C-0.04757812 3.19042969 -1.00921875 3.15820312 -2 3.125 C-5.43363973 3.01856642 -8.32825794 3.05472814 -11.625 4.0625 C-7.37109258 -0.33320433 -6.05232009 -1.19638886 0 0 Z " fill="#85B99C" transform="translate(379.625,300.9375)"/>
<path d="M0 0 C4 4.625 4 4.625 4 8 C2.17806158 9.9249647 0.10764717 11.37535531 -2 13 C-2.66 12.67 -3.32 12.34 -4 12 C-3.51917969 11.60167969 -3.03835938 11.20335937 -2.54296875 10.79296875 C-0.62608175 8.56549753 -0.52258357 7.21165331 -0.3125 4.3125 C-0.21388672 3.10013672 -0.21388672 3.10013672 -0.11328125 1.86328125 C-0.07589844 1.24839844 -0.03851563 0.63351562 0 0 Z " fill="#5AA17D" transform="translate(363,299)"/>
<path d="M0 0 C0.33 0 0.66 0 1 0 C1.14285714 7.42857143 1.14285714 7.42857143 0 11 C-1.32 10.67 -2.64 10.34 -4 10 C-2.8905928 6.51329166 -1.73662334 3.22515763 0 0 Z " fill="#82B799" transform="translate(394,241)"/>
<path d="M0 0 C1.35435364 4.06306092 0.6913193 7.09695547 -1 11 C-3.625 13 -3.625 13 -6 14 C-4.16508812 9.25981099 -2.08058541 4.63586749 0 0 Z " fill="#D8E6D8" transform="translate(389,233)"/>
<path d="M0 0 C3.03685633 0.32537746 3.95633666 0.95236726 6.0625 3.25 C7.84110625 5.77447338 9.46833495 8.31958616 11 11 C8.36 10.67 5.72 10.34 3 10 C3.99 9.01 4.98 8.02 6 7 C4.07423885 4.56070254 2.19909405 2.19909405 0 0 Z " fill="#4B9971" transform="translate(148,119)"/>
<path d="M0 0 C3.10009769 1.38238352 5.28263873 2.98578859 7.6875 5.375 C8.28949219 5.96023437 8.89148438 6.54546875 9.51171875 7.1484375 C11.10135013 9.12608914 11.5905426 10.5214179 12 13 C10.88625 11.8553125 10.88625 11.8553125 9.75 10.6875 C7.176446 8.04428801 7.176446 8.04428801 4.6875 6.3125 C4.130625 5.879375 3.57375 5.44625 3 5 C3 4.34 3 3.68 3 3 C2.01 2.67 1.02 2.34 0 2 C0 1.34 0 0.68 0 0 Z " fill="#46966E" transform="translate(157,93)"/>
<path d="M0 0 C0.66 1.32 1.32 2.64 2 4 C-2.75 8.875 -2.75 8.875 -5 10 C-3.84414715 6.08788267 -2.64465038 3.1254959 0 0 Z " fill="#5FA480" transform="translate(374,290)"/>
<path d="M0 0 C0 0.66 0 1.32 0 2 C-0.99 2.33 -1.98 2.66 -3 3 C-1.02 3 0.96 3 3 3 C1 5 1 5 -1.1640625 5.1953125 C-2.38222656 5.16050781 -2.38222656 5.16050781 -3.625 5.125 C-4.44226563 5.10695313 -5.25953125 5.08890625 -6.1015625 5.0703125 C-6.72804688 5.04710937 -7.35453125 5.02390625 -8 5 C-8 4.34 -8 3.68 -8 3 C-2.25 0 -2.25 0 0 0 Z " fill="#BAD6C2" transform="translate(401,252)"/>
<path d="M0 0 C2.02045442 0.60183749 4.02111039 1.27306096 6 2 C6.33 2.66 6.66 3.32 7 4 C5.68 3.67 4.36 3.34 3 3 C3.33 4.98 3.66 6.96 4 9 C3.01 8.67 2.02 8.34 1 8 C-0.35439668 5.29120665 -0.06501451 2.99066732 0 0 Z " fill="#96C2A8" transform="translate(334,252)"/>
<path d="M0 0 C-3.5429113 2.12574678 -6.94484863 2.47433223 -11 3 C-11.99 3.495 -11.99 3.495 -13 4 C-11.55506608 0.26725404 -11.55506608 0.26725404 -9.3125 -0.8125 C-6.10895912 -1.07224656 -3.15523756 -0.54609881 0 0 Z " fill="#9AC4AB" transform="translate(362,317)"/>
<path d="M0 0 C0.66 0 1.32 0 2 0 C3.60355101 3.50776784 4.22036864 6.14354879 4 10 C-1.875 7.25 -1.875 7.25 -3 5 C-1.68 5.33 -0.36 5.66 1 6 C0.67 4.02 0.34 2.04 0 0 Z " fill="#6FAD8B" transform="translate(341,256)"/>
<path d="M0 0 C0.99 0.33 1.98 0.66 3 1 C3.6875 3.0625 3.6875 3.0625 4 5 C3.34 5 2.68 5 2 5 C2.33 7.64 2.66 10.28 3 13 C0.73437327 10.73437327 0.05537251 9.15839295 -0.09765625 5.95703125 C-0.06510417 3.97135417 -0.03255208 1.98567708 0 0 Z " fill="#95C1A7" transform="translate(349,256)"/>
<path d="M0 0 C0.66 0 1.32 0 2 0 C4.04169485 2.90548882 5 4.40142046 5 8 C3.68 8 2.36 8 1 8 C0.67 5.36 0.34 2.72 0 0 Z " fill="#8DBDA1" transform="translate(374,237)"/>
<path d="M0 0 C0.33 0.66 0.66 1.32 1 2 C-0.125 4.5625 -0.125 4.5625 -2 7 C-4.6875 7.8125 -4.6875 7.8125 -7 8 C-6.02133662 6.85373678 -5.04205413 5.70800212 -4.0625 4.5625 C-3.51722656 3.92441406 -2.97195312 3.28632813 -2.41015625 2.62890625 C-1.63204305 1.73008851 -0.84063472 0.84063472 0 0 Z " fill="#F2F5EB" transform="translate(226,149)"/>
<path d="M0 0 C0 3 0 3 -1.125 5.125 C-3.60144222 7.60144222 -5.58060399 7.69605369 -9 8 C-6.14723863 5.06799526 -3.34920216 2.35684596 0 0 Z " fill="#E8EFE4" transform="translate(206,180)"/>
<path d="M0 0 C-0.60183749 2.02045442 -1.27306096 4.02111039 -2 6 C-2.99 6.495 -2.99 6.495 -4 7 C-4.99 5.68 -5.98 4.36 -7 3 C-2.25 0 -2.25 0 0 0 Z " fill="#6DAB8A" transform="translate(212,174)"/>
<path d="M0 0 C-0.44909061 1.48199902 -0.90956564 2.96055236 -1.375 4.4375 C-1.63023437 5.26121094 -1.88546875 6.08492188 -2.1484375 6.93359375 C-3 9 -3 9 -5 10 C-4.88637738 8.5199159 -4.75877092 7.04089926 -4.625 5.5625 C-4.55539063 4.73878906 -4.48578125 3.91507812 -4.4140625 3.06640625 C-4.27742187 2.38449219 -4.14078125 1.70257813 -4 1 C-2 0 -2 0 0 0 Z " fill="#6CAB8A" transform="translate(231,76)"/>
<path d="M0 0 C1.31625194 2.63250388 0.74813658 3.80179056 0.0625 6.625 C-0.13214844 7.44226563 -0.32679688 8.25953125 -0.52734375 9.1015625 C-0.68332031 9.72804688 -0.83929688 10.35453125 -1 11 C-2 9 -3 7 -4 5 C-3.34 5 -2.68 5 -2 5 C-1.7834375 4.0409375 -1.7834375 4.0409375 -1.5625 3.0625 C-1 1 -1 1 0 0 Z " fill="#529D76" transform="translate(357,265)"/>
<path d="M0 0 C1.65 0.33 3.3 0.66 5 1 C4.01 1.33 3.02 1.66 2 2 C2 2.66 2 3.32 2 4 C0.02 4.33 -1.96 4.66 -4 5 C-2.68 3.35 -1.36 1.7 0 0 Z " fill="#60A581" transform="translate(357,312)"/>
<path d="M0 0 C2.89932357 2.39509338 3.50168276 4.31245243 4 8 C3.67 7.34 3.34 6.68 3 6 C2.34 6 1.68 6 1 6 C0.67 6.66 0.34 7.32 0 8 C0 5.36 0 2.72 0 0 Z " fill="#73AF8F" transform="translate(354,240)"/>
<path d="M0 0 C0.66 0.33 1.32 0.66 2 1 C2 1.33 2 1.66 2 2 C2.66 2.33 3.32 2.66 4 3 C-0.75 6 -0.75 6 -3 6 C-1.125 1.125 -1.125 1.125 0 0 Z " fill="#A3C9B2" transform="translate(197,185)"/>
<path d="M0 0 C1.65 0 3.3 0 5 0 C3.25 3.875 3.25 3.875 1 5 C0.67 3.35 0.34 1.7 0 0 Z " fill="#84B89B" transform="translate(405,249)"/>
<path d="M0 0 C0.66 0.99 1.32 1.98 2 3 C1.01 4.32 0.02 5.64 -1 7 C-1.66 6.01 -2.32 5.02 -3 4 C-2.67 3.01 -2.34 2.02 -2 1 C-1.67 1.33 -1.34 1.66 -1 2 C-0.67 1.34 -0.34 0.68 0 0 Z " fill="#8EBEA2" transform="translate(209,145)"/>
</svg>
